<svg xmlns="http://www.w3.org/2000/svg" xmlns:xlink="http://www.w3.org/1999/xlink" width="40" height="40" viewBox="0 0 40 40"><defs><clipPath id="a"><rect width="40" height="40" transform="translate(875 2187)" fill="#fff" stroke="#707070" stroke-width="1"/></clipPath></defs><g transform="translate(-875 -2187)" clip-path="url(#a)"><g transform="translate(880.448 2187)"><g transform="translate(20.126 7.868)"><path d="M15.375,4.721l-.031.016Z" transform="translate(-15.344 -4.721)" fill="#fff"/></g><g transform="translate(20.157 7.846)"><path d="M15.405,4.708l-.042.022Z" transform="translate(-15.363 -4.708)" fill="#fff"/></g><g transform="translate(19.939 7.967)"><path d="M15.256,4.78l-.024.012Z" transform="translate(-15.232 -4.78)" fill="#fff"/></g><g transform="translate(20.371 7.742)"><path d="M15.492,4.661l.032-.016Z" transform="translate(-15.492 -4.645)" fill="#fff"/></g><g transform="translate(20.199 7.833)"><path d="M15.414,4.7l-.026.013Z" transform="translate(-15.388 -4.7)" fill="#fff"/></g><g transform="translate(20.32 7.758)"><path d="M15.461,4.681l.052-.026Z" transform="translate(-15.461 -4.655)" fill="#fff"/></g><g transform="translate(20.251 7.798)"><path d="M15.461,4.679,15.42,4.7Z" transform="translate(-15.42 -4.679)" fill="#fff"/></g><g transform="translate(19.879 7.979)"><path d="M15.2,4.818l.06-.03Z" transform="translate(-15.197 -4.787)" fill="#fff"/></g><g transform="translate(20.293 7.785)"><path d="M15.445,4.685l.016-.008.011-.005Z" transform="translate(-15.445 -4.671)" fill="#fff"/></g><g transform="translate(0)"><path d="M31.952,1.656C27.966-1.757,20.476.387,17.842,5.506,15.1.369,7.558-1.552,3.674,1.88a1.2,1.2,0,0,0,.261,1.97L13.993,8.79C8.091,9.318,3.3,16.061,5.4,21.1a1.2,1.2,0,0,0,1.948.39L9.03,19.813l4.191-4.191a3.3,3.3,0,0,0,2.7,1,72.361,72.361,0,0,1-4.766,22.153H5.824a.615.615,0,0,0,0,1.231H27.716a.615.615,0,0,0,0-1.231h-10.2c.457-1.427.878-2.953,1.253-4.55a.615.615,0,1,0-1.2-.281c-.4,1.706-.854,3.329-1.349,4.831H12.475c.149-.406.691-1.665,1.491-4.3h1.141a.615.615,0,0,0,0-1.231h-.78a79.418,79.418,0,0,0,1.782-7.91h.824a.615.615,0,1,0,0-1.231h-.62c.417-2.633.711-5.292.863-7.865a3.346,3.346,0,0,0,.878-.687,3.3,3.3,0,0,0,1.544.957q0,.633-.016,1.271H18.355a.615.615,0,1,0,0,1.231h1.19a80.823,80.823,0,0,1-.973,9.824h-.886a.615.615,0,0,0,0,1.231h.678q-.134.749-.281,1.491a.616.616,0,0,0,1.208.24,81.462,81.462,0,0,0,1.537-15.178,3.31,3.31,0,0,0,2.5-1.584l6.482,4.477a1.194,1.194,0,0,0,1.846-.734,8.1,8.1,0,0,0-2.046-6.805.615.615,0,1,0-.937.8,6.839,6.839,0,0,1,1.79,5.7l-2.1-1.453.524-.729a.615.615,0,1,0-1-.719l-.537.747-1.622-1.12,1.226-1.632a.615.615,0,0,0-.984-.739l-1.256,1.671-.948-.655a3.308,3.308,0,0,0-2.029-3.574,3.28,3.28,0,0,0,.012-.855,9.1,9.1,0,0,1,5.228,1.8.615.615,0,0,0,.721-1,10.593,10.593,0,0,0-4.981-1.975l.041-.021,3.036-1.551h0c3.1-1.585-1.174.6,5.928-3.029a1.195,1.195,0,0,0,.23-1.973ZM11.958,6.42l.915-1.385a.615.615,0,0,0-1.026-.679l-1,1.516L7.961,4.456l.708-1.392a.615.615,0,1,0-1.1-.558L6.856,3.913,4.527,2.77C8.05-.281,15.185,1.983,17.09,6.781a3.328,3.328,0,0,0-1.522,1.412Zm2.136,8.33a2.06,2.06,0,0,1-.55-1.229.615.615,0,0,0-1.226.113,3.333,3.333,0,0,0,.222.929l-.626.626L10.051,13.4a.615.615,0,0,0-.853.886l1.846,1.777L9.07,18.032l-.5-.541a.615.615,0,1,0-.907.831L8.2,18.9,6.521,20.581c-1.893-4.674,3.342-11,8.645-10.575,0,.015,0,.029,0,.044a3.29,3.29,0,0,0-1.812.856.615.615,0,0,0,.838.9,2.062,2.062,0,0,1,1.308-.553,3.319,3.319,0,0,0,2.155,1.738A2.081,2.081,0,0,1,14.094,14.749ZM17.408,8h.025l0-.013A2.069,2.069,0,1,1,17.408,8Zm4.905,6.328a2.074,2.074,0,0,1-3.582.084,3.3,3.3,0,0,0,.173-1.35,3.312,3.312,0,0,0,2.428-1.636A2.075,2.075,0,0,1,22.314,14.329Zm6.3-10.492L28.12,2.8a.615.615,0,0,0-1.112.525L27.516,4.4,25.229,5.565l-.92-1.778a.616.616,0,0,0-1.094.565l.917,1.773-3.1,1.583a3.3,3.3,0,0,0-2.306-1.217c2.032-4.706,8.921-6.837,12.386-3.933Z" transform="translate(-3.269 0)" fill="#fff"/></g><g transform="translate(20.225 7.82)"><path d="M15.4,4.705l.019-.01.007,0Z" transform="translate(-15.404 -4.692)" fill="#fff"/></g><g transform="translate(19.879 8.01)"><path d="M15.2,4.806h0Z" transform="translate(-15.196 -4.806)" fill="#fff"/></g><g transform="translate(19.842 8.01)"><path d="M15.211,4.806Z" transform="translate(-15.174 -4.806)" fill="#fff"/></g><g transform="translate(19.963 7.884)"><path d="M15.306,4.763l.063-.032Z" transform="translate(-15.207 -4.73)" fill="#fff"/><path d="M15.247,4.791l.028-.014.028-.014Z" transform="translate(-15.247 -4.708)" fill="#fff"/><path d="M15.308,4.758l-.028.014.044-.023Z" transform="translate(-15.225 -4.717)" fill="#fff"/></g></g></g></svg>