<svg xmlns="http://www.w3.org/2000/svg" xmlns:xlink="http://www.w3.org/1999/xlink" width="40" height="40" viewBox="0 0 40 40"><defs><clipPath id="a"><rect width="40" height="40" transform="translate(705 2187)" fill="#fff" stroke="#707070" stroke-width="1"/></clipPath></defs><g transform="translate(-705 -2187)" clip-path="url(#a)"><g transform="translate(705.005 2187)"><g transform="translate(0)"><path d="M9.456,26.3a4.314,4.314,0,0,0,2.476.66,9.694,9.694,0,0,0,2.642-.414A19.538,19.538,0,0,0,26.55,14.574c.383-1.288,1.053-4.437-.976-5.848-1.607-1.117-4.114-.544-5.118-.246a15.888,15.888,0,0,0-4.56,2.273.781.781,0,1,0,.9,1.279A14.335,14.335,0,0,1,20.9,9.978c1.266-.376,2.924-.565,3.781.031.974.677.83,2.572.371,4.12A18.093,18.093,0,0,1,14.129,25.053c-1.266.376-2.924.565-3.781-.031-.974-.677-.83-2.573-.371-4.121a14.338,14.338,0,0,1,2.054-4.107.781.781,0,0,0-1.279-.9,15.891,15.891,0,0,0-2.273,4.559c-.382,1.288-1.053,4.437.976,5.848Z" transform="translate(5.368 5.377)" fill="#fff"/><path d="M35.575,14.249l-2.023-2.023c-1.823-1.823-4.662-2.367-8-1.534-.126.032-.253.066-.379.1a20.307,20.307,0,0,0-3.942-5.469,18.512,18.512,0,0,0-8.3-4.983C9.943-.407,7.39.085,5.747,1.728l-1.8,1.8a13.5,13.5,0,0,0,6.586,22.711c-.6,3.041-.015,5.623,1.683,7.322h0l2.023,2.023A15.084,15.084,0,1,0,35.575,14.249ZM12.558,1.857a16.94,16.94,0,0,1,7.574,4.572,18.837,18.837,0,0,1,3.552,4.863q-.717.278-1.431.628a17.461,17.461,0,0,0-3.226-4.386A15.826,15.826,0,0,0,12.6,3.488c-1.091-.324-3.753-.9-4.91.767-.928,1.335-.437,3.47-.183,4.326a15.824,15.824,0,0,0,4.045,6.425,18.051,18.051,0,0,0,3.4,2.682q-.517.6-.983,1.229a19.433,19.433,0,0,1-3.523-2.806A16.94,16.94,0,0,1,5.877,8.538c-.61-2.44-.264-4.466.976-5.705s3.265-1.585,5.706-.976Zm3.708,14.415q-.118.118-.234.237A16.291,16.291,0,0,1,12.658,13.9,14.25,14.25,0,0,1,9.006,8.137a4.025,4.025,0,0,1-.032-2.99c.441-.633,1.916-.537,3.183-.161a14.252,14.252,0,0,1,5.765,3.652,15.944,15.944,0,0,1,2.956,4.026,23.511,23.511,0,0,0-4.613,3.608ZM4.036,5.788a9.976,9.976,0,0,0,.213,2.64,16.353,16.353,0,0,0-1.3,2.276.781.781,0,1,0,1.415.662q.219-.467.476-.926A17.523,17.523,0,0,0,6.7,14.013a28.433,28.433,0,0,0-1.628,2.369.781.781,0,1,0,1.334.814c.366-.6.788-1.224,1.259-1.863a21.945,21.945,0,0,0,1.679,1.883A21.032,21.032,0,0,0,13.078,20.2a18.775,18.775,0,0,0-2.155,4.518,11.818,11.818,0,0,1-4.031-1.708,11.709,11.709,0,0,0,2.494-1.065.781.781,0,0,0-.753-1.369c-2.3,1.265-3.347,1.16-3.579.927h0A11.951,11.951,0,0,1,4.036,5.788ZM12.2,25.943a19.157,19.157,0,0,1,5.169-8.566,19.156,19.156,0,0,1,8.566-5.169,10.433,10.433,0,0,1,2.519-.334,5.472,5.472,0,0,1,3.992,1.457c1.419,1.419,1.818,3.732,1.123,6.511A19.157,19.157,0,0,1,28.4,28.409a19.157,19.157,0,0,1-8.566,5.169c-2.78.695-5.092.3-6.511-1.123s-1.818-3.732-1.123-6.512Zm4.2,9.486c.3.029.6.045.908.045a11.635,11.635,0,0,0,2.4-.265,18.329,18.329,0,0,0,2.581,1.481.781.781,0,0,0,.662-1.415q-.622-.291-1.23-.643a21.724,21.724,0,0,0,7.784-5.118A24.56,24.56,0,0,0,31.468,27.3c.562.758,1.064,1.5,1.5,2.206A.781.781,0,1,0,34.3,28.7a32.05,32.05,0,0,0-1.869-2.713,19.518,19.518,0,0,0,2.2-4.253q.35.607.643,1.23a.781.781,0,1,0,1.415-.662,18.314,18.314,0,0,0-1.48-2.581,10.9,10.9,0,0,0,.221-3.3,13.524,13.524,0,0,1-.953,18.065h0c-.4.4-1.839.241-4.143-1.027a.781.781,0,0,0-.753,1.369,12.562,12.562,0,0,0,2.993,1.244A13.531,13.531,0,0,1,16.4,35.428Z" transform="translate(-0.003 0)" fill="#fff"/><path d="M11.73,12.514a.781.781,0,1,0,0-1.562h0a.781.781,0,0,0,0,1.562Z" transform="translate(7.294 7.301)" fill="#fff"/></g></g></g></svg>