<svg xmlns="http://www.w3.org/2000/svg" xmlns:xlink="http://www.w3.org/1999/xlink" width="39" height="39" viewBox="0 0 39 39"><defs><clipPath id="a"><rect width="39" height="39" transform="translate(1429 4000)" fill="#148a43" stroke="#707070" stroke-width="1"/></clipPath></defs><g transform="translate(-1429 -4000)" clip-path="url(#a)"><g transform="translate(1429 4000)"><path d="M34.254,39H7.938A4.454,4.454,0,0,1,3.5,34.592v-.039a4.438,4.438,0,0,1,4.457-4.386h26.3A1.23,1.23,0,0,1,35.5,31.4V37.73A1.265,1.265,0,0,1,34.254,39Zm-26.3-6.333A1.935,1.935,0,0,0,6,34.553v.039A1.952,1.952,0,0,0,7.938,36.5H33V32.667Z" fill="#148a43"/><path d="M3.5,26.583H6V28.75H3.5Z" fill="#148a43"/><path d="M34.26,0H4.768A1.248,1.248,0,0,0,3.5,1.23V24.917H6V2.5H20.667v8.687a1.269,1.269,0,0,0,2.018.994L25.677,9.9,28.67,12.18a1.253,1.253,0,0,0,2-.994V2.5H33V28.333h2.5V1.23A1.224,1.224,0,0,0,34.26,0ZM28.167,8.66,26.431,7.331a1.264,1.264,0,0,0-1.518,0L23.167,8.66V2.5h5Z" fill="#148a43"/><path d="M17.914,23.615l-2.25-2.294,1.782-1.756L18.8,20.942l2.725-2.793,1.788,1.746L19.7,23.611a1.276,1.276,0,0,1-1.785,0Z" fill="#148a43"/><path d="M19.577,28.583a7.5,7.5,0,1,1,7.5-7.5A7.508,7.508,0,0,1,19.577,28.583Zm0-12.747a5.247,5.247,0,1,0,5.246,5.247A5.253,5.253,0,0,0,19.577,15.836Z" fill="#148a43"/></g></g></svg>