<svg xmlns="http://www.w3.org/2000/svg" xmlns:xlink="http://www.w3.org/1999/xlink" width="39" height="39" viewBox="0 0 39 39"><defs><clipPath id="a"><rect width="39" height="39" transform="translate(979 4000)" fill="#148a43" stroke="#707070" stroke-width="1"/></clipPath></defs><g transform="translate(-979 -4000)" clip-path="url(#a)"><g transform="translate(979 4000)"><path d="M30.495,29.569A5.268,5.268,0,1,1,35.763,24.3,5.274,5.274,0,0,1,30.495,29.569Zm0-8.037A2.768,2.768,0,1,0,33.263,24.3,2.771,2.771,0,0,0,30.495,21.532Z" fill="#148a43"/><path d="M36.29,39H24.7A2.714,2.714,0,0,1,22,36.29V34.136a8.492,8.492,0,0,1,2.093-5.577l1.88,1.643A5.988,5.988,0,0,0,24.5,34.136V36.29a.2.2,0,0,0,.2.21H36.29a.21.21,0,0,0,.21-.21V34.136A5.97,5.97,0,0,0,35.024,30.2l1.882-1.646A8.469,8.469,0,0,1,39,34.136V36.29A2.713,2.713,0,0,1,36.29,39Z" fill="#148a43"/><path d="M8.478,29.569A5.268,5.268,0,1,1,13.746,24.3,5.274,5.274,0,0,1,8.478,29.569Zm0-8.037A2.768,2.768,0,1,0,11.246,24.3,2.771,2.771,0,0,0,8.478,21.532Z" fill="#148a43"/><path d="M14.273,39H2.682A2.7,2.7,0,0,1,0,36.29V34.136a8.483,8.483,0,0,1,2.084-5.577L3.968,30.2A5.984,5.984,0,0,0,2.5,34.136V36.29a.19.19,0,0,0,.182.21H14.273a.225.225,0,0,0,.227-.21V34.136A5.978,5.978,0,0,0,13.015,30.2L14.9,28.557A8.474,8.474,0,0,1,17,34.136V36.29A2.728,2.728,0,0,1,14.273,39Z" fill="#148a43"/><path d="M28.877,17.338,24.3,13.9a.449.449,0,0,0-.267-.064H11.063a3,3,0,0,1-2.98-2.972V2.924A2.969,2.969,0,0,1,11.063,0H27.937a2.969,2.969,0,0,1,2.98,2.924V16.341a1.3,1.3,0,0,1-2.04,1ZM11.063,2.5a.475.475,0,0,0-.48.424v7.938a.516.516,0,0,0,.48.472H24.03a2.992,2.992,0,0,1,1.794.57l2.593,1.927V2.924a.475.475,0,0,0-.48-.424Z" fill="#148a43"/><path d="M13.5,5.583h12v2.5h-12Z" fill="#148a43"/></g></g></svg>