<svg xmlns="http://www.w3.org/2000/svg" xmlns:xlink="http://www.w3.org/1999/xlink" width="39" height="39" viewBox="0 0 39 39"><defs><clipPath id="a"><rect width="39" height="39" transform="translate(754 4000)" fill="#148a43" stroke="#707070" stroke-width="1"/></clipPath></defs><g transform="translate(-754 -4000)" clip-path="url(#a)"><g transform="translate(754 4000)"><path d="M19.5,22.384H22v2H19.5Z" fill="#148a43"/><path d="M31.534,12.82c-.077-.045-10.255-4.914-10.255-4.914a1.248,1.248,0,0,0-1.082,0L10.1,12.77c-.608.293-.676.821-.676,1.412V25.1a1.232,1.232,0,0,0,.688,1.126l10.081,4.864a1.484,1.484,0,0,0,1.13,0l10.116-4.864A1.265,1.265,0,0,0,32.16,25.1V13.9a1.263,1.263,0,0,0-.626-1.076h0Zm-10.794-2.4,7.4,3.55-7.4,4.056-7.372-4.057Zm8.921,13.9-7.673,3.689,0-2.108-2.493,0,.007,2.084-7.585-3.662V16.028l8.215,4.52a1.346,1.346,0,0,0,1.223,0l8.3-4.543v8.31Z" fill="#148a43"/><path d="M5.246,15.8,2.78,15.211a18.227,18.227,0,0,1,.892-2.734l2.342.974A15.687,15.687,0,0,0,5.246,15.8Zm1.9-4.557L4.983,9.919A18.492,18.492,0,0,1,6.676,7.6L8.6,9.245A15.975,15.975,0,0,0,7.143,11.247Zm3.214-3.754L8.708,5.567a18.5,18.5,0,0,1,2.323-1.691l1.329,2.159a15.937,15.937,0,0,0-2,1.459Zm4.209-2.587-.975-2.34a18.283,18.283,0,0,1,2.735-.892l.594,2.464A15.739,15.739,0,0,0,14.566,4.906Z" fill="#148a43"/><path d="M20.674,1.167c-.5,0-.985.019-1.465.057L19.4,3.75c.414-.033.859-.049,1.275-.049A15.8,15.8,0,1,1,4.906,21.238l.778.6,1.543-2.012L4.329,17.6a1.269,1.269,0,0,0-1.613.058L0,20.069l1.684,1.9.683-.605A18.363,18.363,0,1,0,20.674,1.167Z" fill="#148a43"/></g></g></svg>