<svg xmlns="http://www.w3.org/2000/svg" xmlns:xlink="http://www.w3.org/1999/xlink" width="39" height="39" viewBox="0 0 39 39"><defs><clipPath id="a"><rect width="39" height="39" transform="translate(1204 4000)" fill="#148a43" stroke="#707070" stroke-width="1"/></clipPath></defs><g transform="translate(-1204 -4000)" clip-path="url(#a)"><g transform="translate(1204 4000)"><path d="M23.038,4.75A2.752,2.752,0,0,1,20.283,7.5h-9.6A2.752,2.752,0,0,1,7.928,4.75v-2A2.752,2.752,0,0,1,10.683,0h9.6a2.752,2.752,0,0,1,2.755,2.75Zm-2.5-2a.25.25,0,0,0-.25-.25h-9.6a.25.25,0,0,0-.25.25v2a.25.25,0,0,0,.25.25h9.6a.25.25,0,0,0,.25-.25Z" fill="#148a43"/><path d="M15.942,20.332h8.932v2.5H15.942Z" fill="#148a43"/><path d="M15.942,12.832h8.932v2.5H15.942Z" fill="#148a43"/><path d="M15.942,27.914h4.174v2.5H15.942Z" fill="#148a43"/><path d="M29.819,39a7.916,7.916,0,1,1,7.931-7.916A7.933,7.933,0,0,1,29.819,39Zm0-13.454a5.538,5.538,0,1,0,5.549,5.538A5.55,5.55,0,0,0,29.819,25.546Z" fill="#148a43"/><path d="M29.716,17.415h-2.5V5.467A.5.5,0,0,0,26.751,5H25.208V2.5h1.542a2.988,2.988,0,0,1,2.966,2.967Z" fill="#148a43"/><path d="M27.212,19.248h2.5v2.166h-2.5Z" fill="#148a43"/><path d="M20.617,36.913H4.175A2.937,2.937,0,0,1,1.25,33.978V5.467A2.954,2.954,0,0,1,4.175,2.5H6.008V5H4.175a.462.462,0,0,0-.42.468V33.978a.432.432,0,0,0,.42.436H20.617v2.5Z" fill="#148a43"/><path d="M28.274,33.616l-2.266-2.3,1.785-1.755,1.37,1.388,2.749-2.81L33.7,29.883l-3.641,3.73a1.259,1.259,0,0,1-1.788,0Z" fill="#148a43"/><path d="M7.939,31.6,5.507,28.954l1.846-1.688,1.509,1.643,3.588-3.9,1.845,1.69-4.51,4.9a1.338,1.338,0,0,1-1.845,0Z" fill="#148a43"/><path d="M7.939,24.1,5.507,21.455l1.846-1.688L8.862,21.41l3.588-3.9,1.845,1.69-4.51,4.9a1.338,1.338,0,0,1-1.845,0Z" fill="#148a43"/><path d="M7.939,16.516,5.507,13.872l1.846-1.688,1.509,1.643,3.588-3.9,1.845,1.69-4.51,4.9a1.338,1.338,0,0,1-1.845,0Z" fill="#148a43"/></g></g></svg>